<mxfile host="app.diagrams.net" modified="2023-12-10T09:30:39.577Z" agent="Mozilla/5.0 (X11; Linux x86_64) AppleWebKit/537.36 (KHTML, like Gecko) Chrome/120.0.0.0 Safari/537.36" etag="EyK7ZPRQFgpP872pV3HB" version="22.1.7" type="github">
  <diagram name="第 1 页" id="5Q7UWT_K4F3fDZIVNzmd">
    <mxGraphModel dx="666" dy="581" grid="1" gridSize="10" guides="1" tooltips="1" connect="1" arrows="1" fold="1" page="1" pageScale="1" pageWidth="827" pageHeight="1169" math="0" shadow="0">
      <root>
        <mxCell id="0" />
        <mxCell id="1" parent="0" />
        <mxCell id="ihxmXXrsQSJpZQ9goiu7-3" style="edgeStyle=orthogonalEdgeStyle;rounded=0;orthogonalLoop=1;jettySize=auto;html=1;entryX=0;entryY=0.5;entryDx=0;entryDy=0;" parent="1" source="ihxmXXrsQSJpZQ9goiu7-1" target="ihxmXXrsQSJpZQ9goiu7-2" edge="1">
          <mxGeometry relative="1" as="geometry" />
        </mxCell>
        <mxCell id="ihxmXXrsQSJpZQ9goiu7-5" style="edgeStyle=orthogonalEdgeStyle;rounded=0;orthogonalLoop=1;jettySize=auto;html=1;entryX=0;entryY=0.5;entryDx=0;entryDy=0;" parent="1" source="ihxmXXrsQSJpZQ9goiu7-1" target="ihxmXXrsQSJpZQ9goiu7-4" edge="1">
          <mxGeometry relative="1" as="geometry" />
        </mxCell>
        <mxCell id="ihxmXXrsQSJpZQ9goiu7-1" value="你好" style="rounded=0;whiteSpace=wrap;html=1;" parent="1" vertex="1">
          <mxGeometry x="90" y="150" width="80" height="60" as="geometry" />
        </mxCell>
        <mxCell id="ihxmXXrsQSJpZQ9goiu7-2" value="1&lt;br&gt;" style="rounded=0;whiteSpace=wrap;html=1;" parent="1" vertex="1">
          <mxGeometry x="280" y="70" width="120" height="60" as="geometry" />
        </mxCell>
        <mxCell id="ihxmXXrsQSJpZQ9goiu7-4" value="2" style="whiteSpace=wrap;html=1;" parent="1" vertex="1">
          <mxGeometry x="290" y="160" width="120" height="60" as="geometry" />
        </mxCell>
      </root>
    </mxGraphModel>
  </diagram>
</mxfile>
